# xmcd
#
# Track frame offsets:
#	150
#	11540
#	21445
#	35190
#	45890
#	56745
#	68637
#	77882
#	88700
#	101655
#	111532
#	122100
#	132637
#	142112
#
# Disc length: 2040 seconds
#
# Revision: 1
# Processed by: cddbd v1.5.2PL0 Copyright (c) Steve Scherf et al.
# Submitted via: audiograbber 1.83.01
#
DISCID=cd07f60e
DTITLE=Patsy Cline - The Best Of Patsy Cline - CD 1
DYEAR=1993
DGENRE=Country
TTITLE0=Walkin' After Midnight
TTITLE1=Three Cigarettes In An Ashtray
TTITLE2=A Church, A Courtroom And Then Goodbye
TTITLE3=Honky Tonk Merry Go Round
TTITLE4=I Can't Forget
TTITLE5=Today, Tomorrow and Forever
TTITLE6=I Love You Honey
TTITLE7=I Cried All The Way To The Altar
TTITLE8=Life's Railway To Heaven
TTITLE9=Turn The Cards Slowly
TTITLE10=Stop, Look And Listen
TTITLE11=Gotta Lot Of Rhythm In My Soul
TTITLE12=I'm Moving Along
TTITLE13=Hungry For Love
EXTD=
EXTT0=
EXTT1=
EXTT2=
EXTT3=
EXTT4=
EXTT5=
EXTT6=
EXTT7=
EXTT8=
EXTT9=
EXTT10=
EXTT11=
EXTT12=
EXTT13=
PLAYORDER=
